<svg width="400" height="88" viewBox="0 0 400 88" fill="none" xmlns="http://www.w3.org/2000/svg">
<path d="M45.173 50.1768V39.2461C45.173 37.748 44.8811 36.3389 44.2971 35.0186C43.7385 33.6729 42.9641 32.5049 41.9738 31.5146C40.9836 30.5244 39.8156 29.75 38.4699 29.1914C37.1496 28.6074 35.7404 28.3154 34.2424 28.3154C32.7443 28.3154 31.3225 28.6074 29.9768 29.1914C28.6564 29.75 27.5012 30.5244 26.5109 31.5146C25.5207 32.5049 24.7336 33.6729 24.1496 35.0186C23.591 36.3389 23.3117 37.748 23.3117 39.2461V50.1768H45.173ZM56.1037 72H45.173V61.0693H23.3117V72H12.4191V39.2461C12.4191 36.2246 12.9904 33.3936 14.133 30.7529C15.2756 28.0869 16.8244 25.7637 18.7795 23.7832C20.76 21.8027 23.0705 20.2412 25.7111 19.0986C28.3772 17.9561 31.2209 17.3848 34.2424 17.3848C37.2639 17.3848 40.0949 17.9561 42.7355 19.0986C45.4016 20.2412 47.7248 21.8027 49.7053 23.7832C51.6857 25.7637 53.2473 28.0869 54.3898 30.7529C55.5324 33.3936 56.1037 36.2246 56.1037 39.2461V72ZM121.752 55.623C121.752 57.8828 121.32 60.0029 120.457 61.9834C119.593 63.9639 118.413 65.7031 116.915 67.2012C115.442 68.6738 113.716 69.8418 111.735 70.7051C109.755 71.5684 107.634 72 105.375 72H78.0671V17.3848H105.375C107.634 17.3848 109.755 17.8164 111.735 18.6797C113.716 19.543 115.442 20.7236 116.915 22.2217C118.413 23.6943 119.593 25.4209 120.457 27.4014C121.32 29.3818 121.752 31.502 121.752 33.7617C121.752 34.7773 121.612 35.8184 121.333 36.8848C121.053 37.9512 120.66 38.9795 120.152 39.9697C119.644 40.96 119.035 41.8613 118.324 42.6738C117.613 43.4863 116.826 44.1592 115.963 44.6924C116.851 45.1748 117.651 45.835 118.362 46.6729C119.073 47.4854 119.682 48.3867 120.19 49.377C120.698 50.3672 121.079 51.4082 121.333 52.5C121.612 53.5664 121.752 54.6074 121.752 55.623ZM88.9978 61.0693H105.375C106.136 61.0693 106.847 60.9297 107.508 60.6504C108.168 60.3711 108.739 59.9902 109.221 59.5078C109.729 59 110.123 58.416 110.402 57.7559C110.681 57.0957 110.821 56.3848 110.821 55.623C110.821 54.8613 110.681 54.1504 110.402 53.4902C110.123 52.8301 109.729 52.2588 109.221 51.7764C108.739 51.2686 108.168 50.875 107.508 50.5957C106.847 50.3164 106.136 50.1768 105.375 50.1768H88.9978V61.0693ZM88.9978 39.2461H105.375C106.136 39.2461 106.847 39.1064 107.508 38.8271C108.168 38.5479 108.739 38.167 109.221 37.6846C109.729 37.1768 110.123 36.5928 110.402 35.9326C110.681 35.2471 110.821 34.5234 110.821 33.7617C110.821 33 110.681 32.2891 110.402 31.6289C110.123 30.9688 109.729 30.3975 109.221 29.915C108.739 29.4072 108.168 29.0137 107.508 28.7344C106.847 28.4551 106.136 28.3154 105.375 28.3154H88.9978V39.2461ZM153.427 72H142.496V17.3848H153.427V44.6924L173.765 17.3848H186.181L168.928 40.4268L186.181 72H173.765L161.768 49.9102L153.427 61.0693V72ZM280.99 72H270.06V17.3848H280.99V39.2461H302.814V17.3848H313.744V72H302.814V50.1768H280.99V72ZM389.904 44.9209C389.904 47.5107 389.561 50.0117 388.876 52.4238C388.216 54.8105 387.276 57.0576 386.057 59.165C384.839 61.2471 383.366 63.1514 381.639 64.8779C379.913 66.6045 378.009 68.0898 375.927 69.334C373.845 70.5527 371.597 71.4922 369.185 72.1523C366.773 72.8379 364.272 73.1807 361.682 73.1807C359.093 73.1807 356.592 72.8379 354.18 72.1523C351.793 71.4922 349.546 70.5527 347.438 69.334C345.356 68.0898 343.452 66.6045 341.725 64.8779C339.999 63.1514 338.513 61.2471 337.269 59.165C336.051 57.0576 335.098 54.8105 334.413 52.4238C333.753 50.0117 333.423 47.5107 333.423 44.9209C333.423 42.3311 333.753 39.8301 334.413 37.418C335.098 35.0059 336.051 32.7588 337.269 30.6768C338.513 28.5947 339.999 26.6904 341.725 24.9639C343.452 23.2373 345.356 21.7646 347.438 20.5459C349.546 19.3271 351.793 18.3877 354.18 17.7275C356.592 17.042 359.093 16.6992 361.682 16.6992C364.272 16.6992 366.773 17.042 369.185 17.7275C371.597 18.3877 373.845 19.3271 375.927 20.5459C378.009 21.7646 379.913 23.2373 381.639 24.9639C383.366 26.6904 384.839 28.5947 386.057 30.6768C387.276 32.7588 388.216 35.0059 388.876 37.418C389.561 39.8301 389.904 42.3311 389.904 44.9209ZM379.05 44.9209C379.05 42.5342 378.593 40.2871 377.679 38.1797C376.764 36.0469 375.52 34.2061 373.946 32.6572C372.397 31.083 370.556 29.8389 368.424 28.9248C366.316 28.0107 364.069 27.5537 361.682 27.5537C359.27 27.5537 357.011 28.0107 354.903 28.9248C352.796 29.8389 350.955 31.083 349.381 32.6572C347.806 34.2061 346.562 36.0469 345.648 38.1797C344.734 40.2871 344.277 42.5342 344.277 44.9209C344.277 47.3076 344.734 49.5547 345.648 51.6621C346.562 53.7441 347.806 55.5723 349.381 57.1465C350.955 58.7207 352.796 59.9648 354.903 60.8789C357.011 61.793 359.27 62.25 361.682 62.25C364.069 62.25 366.316 61.793 368.424 60.8789C370.556 59.9648 372.397 58.7207 373.946 57.1465C375.52 55.5723 376.764 53.7441 377.679 51.6621C378.593 49.5547 379.05 47.3076 379.05 44.9209Z" fill="#F70B2C"/>
<path d="M202.568 72.1465H214.261L235.322 36.1934V72.1465H246.253V17.5312H234.56L213.499 53.5225V17.5312H202.568V72.1465Z" fill="#F70B2C"/>
</svg>
