<svg width="258" height="387" viewBox="0 0 258 387" fill="none" xmlns="http://www.w3.org/2000/svg">
<rect width="258" height="387" fill="#F0F0F0"/>
<path d="M77.1011 200.177V189.246C77.1011 187.748 76.8091 186.339 76.2251 185.019C75.6665 183.673 74.8921 182.505 73.9018 181.515C72.9116 180.524 71.7436 179.75 70.3979 179.191C69.0776 178.607 67.6684 178.315 66.1704 178.315C64.6723 178.315 63.2505 178.607 61.9048 179.191C60.5845 179.75 59.4292 180.524 58.4389 181.515C57.4487 182.505 56.6616 183.673 56.0776 185.019C55.519 186.339 55.2397 187.748 55.2397 189.246V200.177H77.1011ZM88.0317 222H77.1011V211.069H55.2397V222H44.3472V189.246C44.3472 186.225 44.9184 183.394 46.061 180.753C47.2036 178.087 48.7524 175.764 50.7075 173.783C52.688 171.803 54.9985 170.241 57.6391 169.099C60.3052 167.956 63.1489 167.385 66.1704 167.385C69.1919 167.385 72.0229 167.956 74.6636 169.099C77.3296 170.241 79.6528 171.803 81.6333 173.783C83.6138 175.764 85.1753 178.087 86.3179 180.753C87.4604 183.394 88.0317 186.225 88.0317 189.246V222ZM153.68 205.623C153.68 207.883 153.248 210.003 152.385 211.983C151.521 213.964 150.341 215.703 148.843 217.201C147.37 218.674 145.644 219.842 143.663 220.705C141.683 221.568 139.562 222 137.303 222H109.995V167.385H137.303C139.562 167.385 141.683 167.816 143.663 168.68C145.644 169.543 147.37 170.724 148.843 172.222C150.341 173.694 151.521 175.421 152.385 177.401C153.248 179.382 153.68 181.502 153.68 183.762C153.68 184.777 153.54 185.818 153.261 186.885C152.981 187.951 152.588 188.979 152.08 189.97C151.572 190.96 150.963 191.861 150.252 192.674C149.541 193.486 148.754 194.159 147.891 194.692C148.779 195.175 149.579 195.835 150.29 196.673C151.001 197.485 151.61 198.387 152.118 199.377C152.626 200.367 153.007 201.408 153.261 202.5C153.54 203.566 153.68 204.607 153.68 205.623ZM120.926 211.069H137.303C138.064 211.069 138.775 210.93 139.436 210.65C140.096 210.371 140.667 209.99 141.149 209.508C141.657 209 142.051 208.416 142.33 207.756C142.609 207.096 142.749 206.385 142.749 205.623C142.749 204.861 142.609 204.15 142.33 203.49C142.051 202.83 141.657 202.259 141.149 201.776C140.667 201.269 140.096 200.875 139.436 200.596C138.775 200.316 138.064 200.177 137.303 200.177H120.926V211.069ZM120.926 189.246H137.303C138.064 189.246 138.775 189.106 139.436 188.827C140.096 188.548 140.667 188.167 141.149 187.685C141.657 187.177 142.051 186.593 142.33 185.933C142.609 185.247 142.749 184.523 142.749 183.762C142.749 183 142.609 182.289 142.33 181.629C142.051 180.969 141.657 180.397 141.149 179.915C140.667 179.407 140.096 179.014 139.436 178.734C138.775 178.455 138.064 178.315 137.303 178.315H120.926V189.246ZM185.355 222H174.424V167.385H185.355V194.692L205.693 167.385H218.109L200.856 190.427L218.109 222H205.693L193.696 199.91L185.355 211.069V222Z" fill="#CDCDCD"/>
</svg>
